<svg version="1.1" id="Layer_1" xmlns="http://www.w3.org/2000/svg" xmlns:xlink="http://www.w3.org/1999/xlink" x="0px" y="0px"
	 width="100%" viewBox="0 0 1024 1024" enable-background="new 0 0 1024 1024" xml:space="preserve">
<path fill="#00A370" opacity="1.000000" stroke="none" 
	d="
M818.182007,529.000000 
	C818.183716,536.665710 817.996399,543.838135 818.253357,550.994690 
	C818.427002,555.831604 816.463867,557.398743 811.752075,557.336548 
	C795.757324,557.125610 779.758362,557.215881 763.761047,557.214905 
	C757.486694,557.214478 757.097717,557.580017 757.100525,563.572449 
	C757.130188,627.561401 757.168030,691.550293 757.216248,755.539246 
	C757.221802,762.863403 756.853760,763.271729 749.713135,763.267212 
	C733.548584,763.256958 717.382080,763.110229 701.220764,763.337585 
	C696.313232,763.406616 694.896790,761.529358 694.912170,756.873535 
	C695.020325,724.211609 694.943604,691.549133 694.918701,658.886780 
	C694.913635,652.252380 694.899292,652.235413 688.268799,652.222717 
	C675.103943,652.197449 661.935730,652.356201 648.776001,652.089050 
	C644.308960,651.998352 643.123535,653.520142 643.145386,657.846130 
	C643.311401,690.674316 643.256348,723.503723 643.259460,756.332703 
	C643.260132,763.162964 643.179077,763.239502 636.207458,763.243225 
	C620.209595,763.251892 604.209717,763.103027 588.215027,763.325745 
	C583.516113,763.391174 581.764160,762.034729 581.791016,757.112061 
	C581.969055,724.450867 581.881592,691.788330 581.900818,659.126221 
	C581.904724,652.464539 581.668335,652.168152 574.825806,652.167786 
	C528.998535,652.165222 483.171082,652.237244 437.344360,652.087585 
	C432.421204,652.071472 431.097961,653.811035 431.126038,658.486511 
	C431.325287,691.646729 431.248047,724.808716 431.441589,757.968994 
	C431.464844,761.958313 430.110016,763.310730 426.269806,763.289307 
	C408.772675,763.191528 391.274109,763.165344 373.777344,763.291443 
	C369.167206,763.324646 367.795380,761.418579 367.813568,756.946106 
	C367.947815,723.952148 367.811981,690.957214 367.946106,657.963257 
	C367.963562,653.672974 366.737885,652.049805 362.287842,652.127197 
	C349.460175,652.350281 336.621552,652.389343 323.796661,652.092224 
	C318.988434,651.980835 317.900177,653.854492 317.917145,658.245361 
	C318.042145,690.573486 317.966614,722.902466 317.971252,755.231140 
	C317.972382,763.161743 317.940887,763.225342 309.841766,763.226807 
	C293.343933,763.229919 276.846100,763.243164 260.348297,763.219971 
	C254.414474,763.211670 254.427094,762.835999 254.437332,756.978882 
	C254.471115,737.664185 254.180786,718.349182 254.137222,699.033997 
	C254.037598,654.873718 254.022934,610.713257 253.940948,566.552856 
	C253.928055,559.611328 253.416901,559.123352 246.561371,559.102966 
	C230.230301,559.054504 213.899002,559.081299 197.567932,559.033325 
	C191.319931,559.014954 190.834518,558.465698 190.834351,552.108276 
	C190.833298,512.280151 190.833511,472.452087 190.837494,432.623993 
	C190.838120,426.337860 191.281067,425.886169 197.715668,425.873596 
	C213.546738,425.842712 229.377869,425.843140 245.208969,425.821503 
	C252.582962,425.811432 252.578430,425.801453 252.581787,418.186920 
	C252.598282,380.703156 252.615662,343.219360 252.637131,305.735596 
	C252.640915,299.117218 252.761765,298.972717 259.306732,298.972229 
	C422.618683,298.960693 585.930664,298.954865 749.242615,298.955444 
	C756.620605,298.955475 756.557861,299.416016 756.529114,307.075806 
	C756.448425,328.550995 756.802979,350.027496 756.920044,371.503815 
	C757.005371,387.167419 756.980530,402.831573 757.016418,418.495483 
	C757.033142,425.769775 757.063599,425.828461 764.122009,425.845978 
	C779.953064,425.885254 795.784302,425.867310 811.615417,425.901093 
	C817.604309,425.913879 818.102295,426.402405 818.110046,432.520905 
	C818.150330,464.513947 818.161194,496.506958 818.182007,529.000000 
M317.347443,462.499817 
	C317.345581,468.989777 317.519531,475.486206 317.280426,481.967407 
	C317.119293,486.335205 318.846802,487.804047 323.140594,487.754120 
	C337.948914,487.582001 352.761749,487.579224 367.569946,487.755981 
	C372.077789,487.809753 373.785400,486.218994 373.728638,481.650177 
	C373.536285,466.176453 373.503510,450.697479 373.701996,435.224243 
	C373.758179,430.845581 371.883118,429.879211 368.023315,429.908325 
	C352.881348,430.022522 337.737274,430.017548 322.595551,429.881470 
	C318.808380,429.847473 317.200989,431.035004 317.297943,435.042603 
	C317.511230,443.856903 317.352722,452.680206 317.347443,462.499817 
M684.452209,429.968353 
	C671.962463,429.877136 659.463379,430.034454 646.988037,429.562561 
	C642.501648,429.392822 641.099976,430.587982 641.150208,434.991028 
	C641.330505,450.813477 641.354797,466.640564 641.157593,482.462433 
	C641.104370,486.728790 642.711731,487.860748 646.709412,487.810822 
	C660.865967,487.633942 675.028076,487.590240 689.183289,487.810394 
	C693.635437,487.879608 694.991028,486.191406 694.949402,481.975494 
	C694.809631,467.818542 694.913391,453.659241 694.921570,439.500824 
	C694.927124,429.959015 694.925354,429.959015 684.452209,429.968353 
z"/>
</svg>