<?xml version="1.0" standalone="no"?>
<!DOCTYPE svg PUBLIC "-//W3C//DTD SVG 20010904//EN"
 "http://www.w3.org/TR/2001/REC-SVG-20010904/DTD/svg10.dtd">
<svg version="1.0" xmlns="http://www.w3.org/2000/svg"
 width="512.000000pt" height="512.000000pt" viewBox="0 0 512.000000 512.000000"
 preserveAspectRatio="xMidYMid meet">

<g transform="translate(0.000000,512.000000) scale(0.100000,-0.100000)"
fill="#000000" stroke="none">
<path d="M4382 4683 c-7 -3 -24 -23 -38 -45 -44 -69 -128 -98 -604 -213 -545
-131 -853 -272 -1085 -496 -179 -173 -280 -362 -332 -617 -14 -68 -18 -134
-17 -302 0 -228 15 -344 68 -557 23 -89 23 -92 6 -131 -65 -144 -153 -445
-199 -682 l-27 -134 -42 121 -43 122 16 60 c27 105 45 252 45 371 0 322 -122
556 -376 726 -152 101 -280 150 -632 238 -266 67 -342 91 -342 108 0 5 -11 20
-25 33 -35 36 -96 35 -124 -1 -19 -24 -21 -40 -21 -176 0 -174 12 -294 46
-472 103 -528 363 -869 750 -981 79 -23 287 -50 317 -40 6 2 56 6 109 10 l97
6 36 -112 c80 -249 115 -471 124 -796 6 -238 6 -242 30 -267 34 -36 88 -36
122 0 24 26 24 26 25 262 2 367 35 672 109 1002 36 162 135 482 158 514 11 14
23 14 132 1 1006 -121 1648 494 1816 1740 13 100 22 236 26 407 l6 256 -26 26
c-25 25 -70 33 -105 19z m-46 -385 c-14 -260 -48 -485 -106 -713 -173 -678
-536 -1077 -1065 -1172 -152 -27 -545 -20 -545 10 0 23 126 230 201 331 93
123 248 272 374 359 50 35 96 74 102 89 19 39 -1 86 -44 105 -32 13 -38 12
-81 -8 -69 -34 -226 -156 -321 -250 -97 -97 -196 -221 -277 -349 -31 -50 -58
-89 -60 -87 -12 12 -36 219 -41 352 -18 546 210 893 738 1118 155 66 269 101
654 197 193 48 377 99 410 112 33 14 62 26 64 27 2 0 1 -54 -3 -121z m-3264
-1317 c150 -38 320 -87 378 -110 254 -99 412 -246 476 -445 22 -66 27 -105 31
-216 2 -74 0 -155 -4 -180 l-8 -44 -54 74 c-112 155 -331 340 -403 340 -42 0
-78 -40 -78 -85 0 -41 1 -41 126 -134 91 -67 167 -150 241 -261 75 -112 77
-117 50 -124 -41 -11 -225 -6 -299 8 -393 76 -638 409 -722 981 -23 155 -31
279 -18 271 6 -4 134 -38 284 -75z"/>
</g>
</svg>
